<svg xmlns="http://www.w3.org/2000/svg" width="1500" height="850" viewBox="0 0 1500 850"><rect width="1500" height="850" fill="#0a0d12"/><style>text{font-family:Arial,sans-serif;fill:#f4f7fb}.h{font-size:34px;font-weight:700}.s{font-size:18px;fill:#a9b4c1}.t{font-size:18px;font-weight:700}.n{fill:#121922;stroke:#4779ad;stroke-width:2}.g{fill:#102018;stroke:#68d99b;stroke-width:2}.a{stroke:#68a9ef;stroke-width:3;fill:none;marker-end:url(#m)}.bar{fill:#2a6fa8}.lat{fill:#477b5e}</style><defs><marker id="m" markerWidth="10" markerHeight="10" refX="8" refY="3" orient="auto"><path d="M0,0 L0,6 L9,3 z" fill="#68a9ef"/></marker></defs><text class="h" x="55" y="58">SwiftRoute — Implemented Local Slice & Stress Evidence</text><text class="s" x="55" y="90">Verified local Python/SQLite boundary · synthetic loopback tests · not production capacity or SLA evidence</text>
<rect class="g" x="55" y="165" rx="14" width="210" height="90"/><text class="t" x="86" y="202">JSON HTTP API</text><text class="s" x="87" y="230">bounded requests</text><rect class="g" x="315" y="165" rx="14" width="210" height="90"/><text class="t" x="363" y="202">Validation</text><text class="s" x="344" y="230">idempotency guard</text><rect class="g" x="575" y="165" rx="14" width="220" height="90"/><text class="t" x="616" y="202">Order state</text><text class="s" x="603" y="230">approve / reject</text><rect class="g" x="845" y="165" rx="14" width="220" height="90"/><text class="t" x="884" y="202">SQLite WAL</text><text class="s" x="874" y="230">persistent state</text><rect class="g" x="1115" y="165" rx="14" width="250" height="90"/><text class="t" x="1156" y="202">Transactional audit</text><text class="s" x="1164" y="230">same-state write</text><path class="a" d="M265 210 H315"/><path class="a" d="M525 210 H575"/><path class="a" d="M795 210 H845"/><path class="a" d="M1065 210 H1115"/>
<text class="t" x="55" y="345">FINAL LOCAL SYNTHETIC STRESS RUN</text><line x1="90" y1="690" x2="1380" y2="690" stroke="#44505f" stroke-width="2"/><line x1="90" y1="390" x2="90" y2="690" stroke="#44505f" stroke-width="2"/>
<rect class="bar" x="180" y="450" width="120" height="240"/><rect class="bar" x="420" y="470" width="120" height="220"/><rect class="bar" x="660" y="485" width="120" height="205"/><text class="t" x="185" y="430">380.62 req/s</text><text class="t" x="425" y="450">349.14 req/s</text><text class="t" x="665" y="465">330.13 req/s</text><text class="s" x="190" y="725">Baseline · c8</text><text class="s" x="410" y="725">Contention · c32</text><text class="s" x="670" y="725">Burst · c64</text>
<rect class="lat" x="900" y="660" width="100" height="30"/><rect class="lat" x="1060" y="535" width="100" height="155"/><rect class="lat" x="1220" y="390" width="100" height="300"/><text class="t" x="895" y="640">82.62 ms</text><text class="t" x="1048" y="515">432.93 ms</text><text class="t" x="1205" y="370">836.31 ms</text><text class="s" x="910" y="725">p95</text><text class="s" x="1070" y="725">p95</text><text class="s" x="1230" y="725">p95</text>
<text class="s" x="55" y="795">2,430 total synthetic requests in the final run · 8/8 deterministic tests · zero unexpected responses in the final three-profile run.</text><text class="s" x="55" y="822">Authentication, PostgreSQL, courier integrations, real shipments, public deployment, users, revenue and production-security evidence remain outside the implemented slice.</text></svg>